<?xml version="1.0" encoding="utf-8"?>
<!-- Generator: Adobe Illustrator 20.0.0, SVG Export Plug-In . SVG Version: 6.00 Build 0)  -->
<!DOCTYPE svg PUBLIC "-//W3C//DTD SVG 1.1//EN" "http://www.w3.org/Graphics/SVG/1.1/DTD/svg11.dtd">
<svg version="1.1" id="Layer_1" xmlns="http://www.w3.org/2000/svg" xmlns:xlink="http://www.w3.org/1999/xlink" x="0px" y="0px"
	 viewBox="0 0 600 400" style="enable-background:new 0 0 600 400;" xml:space="preserve">
<style type="text/css">
	.st0{fill:url(#XMLID_2_);}
	.st1{fill:none;}
	.st2{fill:#FAF15B;}
	.st3{fill:#DFE54F;}
	.st4{opacity:0.54;fill:#009444;enable-background:new    ;}
	.st5{fill:#009444;}
	.st6{fill:#D7DF23;}
	.st7{fill:#FFF200;}
	.st8{fill:#F9ED32;}
	.st9{fill:#8DC63F;}
	.st10{fill:#FFF766;}
	.st11{fill:#00341C;}
	.st12{fill:#006838;}
	.st13{fill:#004E2A;}
	.st14{opacity:0.66;fill:#FFF766;enable-background:new    ;}
	.st15{fill:#33A969;}
	.st16{fill:#39B54A;}
	.st17{fill:#FFFA99;}
	.st18{fill:#006F33;}
</style>
<linearGradient id="XMLID_2_" gradientUnits="userSpaceOnUse" x1="0" y1="200" x2="600" y2="200" gradientTransform="matrix(1 0 0 -1 0 400)">
	<stop  offset="0" style="stop-color:#FBF6B0"/>
	<stop  offset="0.1499" style="stop-color:#F9ED32"/>
	<stop  offset="0.1617" style="stop-color:#F4EB33"/>
	<stop  offset="0.2994" style="stop-color:#BDD739"/>
	<stop  offset="0.402" style="stop-color:#9ACB3D"/>
	<stop  offset="0.4573" style="stop-color:#8DC63F"/>
	<stop  offset="0.5542" style="stop-color:#72C142"/>
	<stop  offset="0.7301" style="stop-color:#39B54A"/>
	<stop  offset="1" style="stop-color:#006838"/>
</linearGradient>
<rect id="XMLID_568_" class="st0" width="600" height="400"/>
<polygon id="XMLID_4_" class="st1" points="379.4,219 328.2,273 277,200 "/>
<polygon id="XMLID_8_" class="st1" points="541.8,200 533,273 444,241 "/>
<polygon id="XMLID_10_" class="st2" points="206.2,219 162.9,312 102,200 "/>
<polygon id="XMLID_19_" class="st3" points="162.9,312 206.2,219 249.5,294 "/>
<polygon id="XMLID_18_" class="st4" points="249.5,294 277,200 328.2,273 "/>
<polygon id="XMLID_189_" class="st4" points="379.4,219 328.2,273 466.1,308 444,241 "/>
<polygon id="XMLID_16_" class="st5" points="466.1,308 444,241 533,273 "/>
<polygon id="XMLID_15_" class="st6" points="59,277.2 102,200 162.9,312 "/>
<polygon id="XMLID_504_" class="st7" points="102,200 59,277.2 0,291.5 0,276.2 33,219 "/>
<polygon id="XMLID_185_" class="st1" points="249.5,144 206.2,219 150,171 "/>
<polygon id="XMLID_184_" class="st1" points="351,123 277,200 249.5,144 "/>
<polygon id="XMLID_183_" class="st1" points="422.8,144 379.4,219 351,123 "/>
<polygon id="XMLID_22_" class="st1" points="509.4,144 444,241 422.8,144 "/>
<polygon id="XMLID_21_" class="st6" points="150,171 102,200 76.3,144 "/>
<polygon id="XMLID_20_" class="st8" points="102,200 150,171 206.2,219 "/>
<polygon id="XMLID_191_" class="st6" points="249.5,144 206.2,219 206.2,219 249.5,294 277,200 "/>
<polygon id="XMLID_11_" class="st4" points="277,200 351,123 379.4,219 "/>
<polygon id="XMLID_9_" class="st9" points="379.4,219 422.8,144 444,241 "/>
<polygon id="XMLID_7_" class="st8" points="33,219 76.3,144 102,200 "/>
<polygon id="XMLID_513_" class="st10" points="33,219 0,219 0,163.1 32.3,217.7 "/>
<polygon id="XMLID_510_" class="st7" points="74.8,144 32.3,217.7 31.5,219 0,165.6 0,122.7 "/>
<polygon id="XMLID_507_" class="st1" points="600,113.8 600,144.5 580.2,106.9 580,106.5 580.6,106.7 "/>
<polygon id="XMLID_506_" class="st11" points="600,144.5 600,211.3 541.8,200 579.7,107.2 580,106.5 580.2,106.9 "/>
<polygon id="XMLID_187_" class="st12" points="444,241 509.4,144 541.8,200 "/>
<polygon id="XMLID_186_" class="st13" points="580,106.5 541.8,200 509.4,144 "/>
<polygon id="XMLID_404_" class="st1" points="277,42 249.5,144 180,93 "/>
<polygon id="XMLID_403_" class="st1" points="376.9,42 351,123 277,42 "/>
<polygon id="XMLID_402_" class="st1" points="466.1,69 422.8,144 376.9,42 "/>
<polygon id="XMLID_400_" class="st14" points="180,93 150,171 118.1,69 "/>
<polygon id="XMLID_399_" class="st6" points="150,171 180,93 249.5,144 "/>
<polygon id="XMLID_398_" class="st6" points="249.5,144 277,42 351,123 "/>
<polygon id="XMLID_397_" class="st4" points="351,123 376.9,42 422.8,144 "/>
<polygon id="XMLID_17_" class="st5" points="466.1,69 422.8,144 509.4,144 541.3,18 "/>
<polygon id="XMLID_505_" class="st10" points="76.3,144 74.5,143.5 0,122.3 0,93 32,69.8 33,69 "/>
<polygon id="XMLID_415_" class="st9" points="328.2,273 261,400 249.5,294 "/>
<polygon id="XMLID_414_" class="st9" points="466.1,308 351,364 328.2,273 "/>
<polygon id="XMLID_413_" class="st15" points="533,273 466.1,351 466.1,308 "/>
<polygon id="XMLID_412_" class="st1" points="162.9,312 123,336 59,277.2 "/>
<polygon id="XMLID_190_" class="st3" points="162.9,312 123,336 206.2,369 249.5,294 "/>
<polygon id="XMLID_410_" class="st6" points="206.2,369 249.5,294 261,400 "/>
<polygon id="XMLID_409_" class="st4" points="261,400 328.2,273 351,364 "/>
<polygon id="XMLID_408_" class="st16" points="351,364 466.1,308 466.1,351 "/>
<polygon id="XMLID_407_" class="st7" points="47,377 59,277.2 123,336 "/>
<polygon id="XMLID_503_" class="st7" points="47,377 0,373.3 0,308.9 "/>
<polygon id="XMLID_502_" class="st14" points="59,277.2 47,377 0,308.9 0,291.5 "/>
<polygon id="XMLID_501_" class="st8" points="206.2,369 188.3,400 146.7,400 123,336 "/>
<polygon id="XMLID_500_" class="st1" points="261,400 210.9,400 206.2,369 "/>
<polygon id="XMLID_499_" class="st9" points="351,364 344.3,400 261,400 "/>
<polygon id="XMLID_498_" class="st9" points="466,351 433.5,400 365.4,400 351,364 "/>
<polygon id="XMLID_497_" class="st1" points="123,336 118.4,400 62.7,400 47,377 "/>
<polygon id="XMLID_495_" class="st6" points="146.7,400 118.4,400 123,336 "/>
<polygon id="XMLID_494_" class="st1" points="210.9,400 188.3,400 206.2,369 "/>
<polygon id="XMLID_493_" class="st4" points="365.4,400 344.3,400 351,364 "/>
<polygon id="XMLID_483_" class="st7" points="62.7,400 27.3,400 47,377 "/>
<polygon id="XMLID_478_" class="st10" points="47,377 27.3,400 0,400 0,373.3 "/>
<polygon id="XMLID_477_" class="st1" points="245.3,0 180,93 164,0 "/>
<polygon id="XMLID_465_" class="st4" points="417,0 376.9,42 265.5,0 "/>
<polygon id="XMLID_464_" class="st5" points="484.3,0 466,69 426.2,0 "/>
<polygon id="XMLID_462_" class="st6" points="159.5,0 119.6,69 114.2,0 "/>
<polygon id="XMLID_461_" class="st6" points="180,93 119.6,69 159.5,0 164,0 "/>
<polygon id="XMLID_460_" class="st3" points="277,42 180,93 245.3,0 253,0 "/>
<polygon id="XMLID_451_" class="st9" points="376.9,42 277,42 253,0 265.5,0 "/>
<polygon id="XMLID_14_" class="st9" points="466,69 376.9,42 417,0 426.2,0 "/>
<polygon id="XMLID_457_" class="st7" points="118.1,69 31.5,69 32.4,67.8 80,0 112.8,0 "/>
<polygon id="XMLID_458_" class="st17" points="33,69 0,69 0,11.8 32.4,67.8 "/>
<polygon id="XMLID_456_" class="st8" points="80,0 32.4,67.8 31.5,69 0,14.4 0,0 "/>
<polygon id="XMLID_450_" class="st1" points="600,0 600,1 599.4,0 "/>
<polygon id="XMLID_192_" class="st13" points="600,1 600,48.6 542.6,18.7 542.2,18.5 541.3,18 582.3,0 599.4,0 "/>
<polygon id="XMLID_447_" class="st18" points="541.3,18 466,69 484.3,0 510.2,0 "/>
<polygon id="XMLID_445_" class="st11" points="582.3,0 541.3,18 510.2,0 "/>
<polygon id="XMLID_193_" class="st18" points="600,331 600,333.7 533,273 541.8,200 "/>
<polygon id="XMLID_444_" class="st13" points="600,211.3 600,331 541.8,200 "/>
<polygon id="XMLID_433_" class="st11" points="600,94.5 600,113.5 581,106.5 "/>
<polygon id="XMLID_475_" class="st18" points="510.4,144 542.3,18 581,106.5 "/>
<polygon id="XMLID_439_" class="st11" points="600,48 600,94.5 581,106.5 542.6,18.7 542.3,18 "/>
<polygon id="XMLID_496_" class="st18" points="466.1,351 533,273 533,377 "/>
<polygon id="XMLID_188_" class="st13" points="600,333.7 600,336.7 533,377 533,273 "/>
<polygon id="XMLID_401_" class="st11" points="600,336.7 600,400 554.6,400 533,377 "/>
<polygon id="XMLID_396_" class="st12" points="554.6,400 524.9,400 533,377 "/>
<polygon id="XMLID_395_" class="st18" points="488.9,400 433.5,400 466,351 "/>
<polygon id="XMLID_393_" class="st5" points="533,377 524.9,400 488.9,400 466,351 "/>
</svg>
